<svg xmlns="http://www.w3.org/2000/svg" width="47.47" height="48.456" viewBox="0 0 47.47 48.456">
  <g id="Group_5691" data-name="Group 5691" transform="translate(-1508.529 -220.672)">
    <path id="Ellipse_158" data-name="Ellipse 158" d="M23.871.229a23.416,23.416,0,0,1,9.218,1.977,23.887,23.887,0,0,1,7.5,5.21,24.428,24.428,0,0,1,5.039,26.311,24.031,24.031,0,0,1-5.039,7.618,23.639,23.639,0,0,1-7.5,5.154,23.489,23.489,0,0,1-18.477.03A23.875,23.875,0,0,1,7.02,41.358,24.427,24.427,0,0,1,1.886,14.809,24.023,24.023,0,0,1,7.02,7.152a23.629,23.629,0,0,1,7.592-5.114A23.308,23.308,0,0,1,23.871.229Z" transform="translate(1508.529 220.672)" fill="#fa0"/>
    <g id="Group_5403" data-name="Group 5403" transform="translate(1523.595 236.371)">
      <path id="Rectangle_4612" data-name="Rectangle 4612" d="M1.179,13.531,13.4,1.183a1.633,1.633,0,0,1,1.794-.36,1.66,1.66,0,0,1,.547.373,1.692,1.692,0,0,1,.363.559,1.715,1.715,0,0,1,0,1.266,1.668,1.668,0,0,1-.363.555L3.534,15.923a1.65,1.65,0,0,1-2.355,0,1.69,1.69,0,0,1-.366-.559,1.715,1.715,0,0,1,0-1.271A1.679,1.679,0,0,1,1.179,13.531Z" transform="translate(0.667 0.075)" fill="#fff"/>
      <path id="Rectangle_4613" data-name="Rectangle 4613" d="M3.535,1.2,15.742,13.642a1.685,1.685,0,0,1,.364.557,1.715,1.715,0,0,1,0,1.266,1.675,1.675,0,0,1-.364.556,1.638,1.638,0,0,1-2.342,0L1.179,3.575a1.7,1.7,0,0,1-.366-.56,1.715,1.715,0,0,1,0-1.271,1.673,1.673,0,0,1,.366-.557,1.648,1.648,0,0,1,1.8-.361A1.671,1.671,0,0,1,3.535,1.2Z" transform="translate(0)" fill="#fff"/>
    </g>
  </g>
</svg>
