<svg xmlns="http://www.w3.org/2000/svg" width="22.988" height="22.379" viewBox="0 0 22.988 22.379">
  <g id="Group_5560" data-name="Group 5560" transform="translate(-859.734 -807.982)">
    <path id="Path_5284" data-name="Path 5284" d="M-3871.788-7615.695a4.134,4.134,0,0,0-5.15.683l-4.969,4.92a3.66,3.66,0,0,0,.16,4.821,3.671,3.671,0,0,0,4.809.672l2.064-1.815" transform="translate(4744 8432.832)" fill="none" stroke="#707070" stroke-linecap="round" stroke-linejoin="round" stroke-width="3"/>
    <path id="Path_5285" data-name="Path 5285" d="M-3871.788-7615.695a4.134,4.134,0,0,0-5.15.683l-4.969,4.92a3.66,3.66,0,0,0,.16,4.821,3.671,3.671,0,0,0,4.809.672l2.064-1.815" transform="translate(-3001.544 -6794.488) rotate(180)" fill="none" stroke="#707070" stroke-linecap="round" stroke-linejoin="round" stroke-width="3"/>
  </g>
</svg>
