<svg xmlns="http://www.w3.org/2000/svg" width="90" height="23.891" viewBox="0 0 90 23.891">
  <g id="Group_5711" data-name="Group 5711" transform="translate(-136 -176.371)">
    <path id="Path_5136" data-name="Path 5136" d="M543.346,98.3a2.227,2.227,0,0,0-1.065.256,2.86,2.86,0,0,0-.779.587v3.67a4.025,4.025,0,0,0,.765.466,2.8,2.8,0,0,0,1.274.346,1.643,1.643,0,0,0,1.379-.662,2.93,2.93,0,0,0,.495-1.8,3.484,3.484,0,0,0-.57-2.06,1.772,1.772,0,0,0-1.5-.8m-41.053-.075a2.075,2.075,0,0,0-1.124.331,1.758,1.758,0,0,1-.285.165.808.808,0,0,0-.18.105v4.392c.09.075.18.151.315.256s.27.2.435.316h-.015a2.489,2.489,0,0,0,1.379.436,1.459,1.459,0,0,0,1.29-.782,3.816,3.816,0,0,0,.48-2.015,4.21,4.21,0,0,0-.57-2.376,2.012,2.012,0,0,0-1.724-.827m26.719.075a2.226,2.226,0,0,0-1.064.256,2.866,2.866,0,0,0-.78.587v3.67a4.038,4.038,0,0,0,.765.466,2.8,2.8,0,0,0,1.274.346,1.644,1.644,0,0,0,1.38-.662,2.93,2.93,0,0,0,.495-1.8,3.382,3.382,0,0,0-.57-2.06,1.791,1.791,0,0,0-1.5-.8m26.674,4.572h2.849l-1.38-2.8Zm18.1-4.783a2.5,2.5,0,0,0-1.29-.271h-2.384v2.391h1.829a4.137,4.137,0,0,0,1.694-.271.988.988,0,0,0,.585-.978.94.94,0,0,0-.435-.872m8.726,9.52c.09,0,.165.015.195.06a.355.355,0,0,1,.075.151h.239a.417.417,0,0,0-.165-.361.643.643,0,0,0-.36-.12.52.52,0,0,0-.435.2.78.78,0,0,0-.15.5.673.673,0,0,0,.18.5.576.576,0,0,0,.435.18.555.555,0,0,0,.33-.12.437.437,0,0,0,.165-.361h-.239a.244.244,0,0,1-.075.166.37.37,0,0,1-.18.06.286.286,0,0,1-.225-.12.531.531,0,0,1-.075-.3.689.689,0,0,1,.075-.3.223.223,0,0,1,.21-.12" transform="translate(-357.936 88.316)" fill="#fff"/>
    <path id="Path_5137" data-name="Path 5137" d="M574.639,93.983a1.422,1.422,0,0,0-1.05-.465,1.385,1.385,0,0,0-.9.33,2.915,2.915,0,0,0-.315-1l-2.084-3.674a5.215,5.215,0,0,0,1.245-3.66,5.114,5.114,0,0,0-2.055-4.169,7,7,0,0,0-4.349-1.3h-7.679a2.418,2.418,0,0,0-1.725.735,2.393,2.393,0,0,0-.69,1.694V87.2l-2.985-5.834a2.793,2.793,0,0,0-.81-.915c-.015-.015-.03-.015-.045-.03a2.328,2.328,0,0,0-1.29-.39h-2.715a2.452,2.452,0,0,0-1.215.345,2.31,2.31,0,0,0-.93.96l-2.324,4.289a7.722,7.722,0,0,0-1.829-3.48,1.485,1.485,0,0,0-.15-.15,7.147,7.147,0,0,0-5.354-2.265,7.91,7.91,0,0,0-2.594.435,7.237,7.237,0,0,0-.72.3c-.015,0-.015-.015-.03-.015a2.477,2.477,0,0,0-1.41-.465h-2.175a2.542,2.542,0,0,0-1.845.795,2.7,2.7,0,0,0-.57.9,7.151,7.151,0,0,0-5.024-1.95,7.911,7.911,0,0,0-2.594.435,7.244,7.244,0,0,0-.72.3,2.414,2.414,0,0,0-1.425-.465h-2.175c-.135,0-.27.015-.42.03a4.6,4.6,0,0,0,.09-.945,4.1,4.1,0,0,0-1.035-2.835,3.742,3.742,0,0,0-2.864-1.17,3.838,3.838,0,0,0-2.85,1.155c-.03.03-.045.06-.075.075a2.368,2.368,0,0,0-1.56-.585h-3.314a2.408,2.408,0,0,0-1.935.99,2.7,2.7,0,0,0-.525,1.6v3.12a6.388,6.388,0,0,0-1.695-1.185,7.428,7.428,0,0,0-4.214-.569v-1.38a2.581,2.581,0,0,0-.735-1.8,2.544,2.544,0,0,0-1.845-.795h-3.494a2.61,2.61,0,0,0-2.58,2.609v15.6a2.61,2.61,0,0,0,2.58,2.61h1.889a2.458,2.458,0,0,0,1.41-.45c.015,0,.015-.015.03-.015a1.743,1.743,0,0,0,.2-.15,7.166,7.166,0,0,0,3.615.87,6.9,6.9,0,0,0,5.024-2.04,2.661,2.661,0,0,0,.405.8,2.409,2.409,0,0,0,1.935.99h3.314a2.392,2.392,0,0,1,2.835,0H511.6a2.634,2.634,0,0,0,.72,1.635,2.518,2.518,0,0,0,1.845.8h3.555a2.525,2.525,0,0,0,1.845-.81,2.641,2.641,0,0,0,.72-1.814v-.33c.33.03.66.06,1,.06a7.118,7.118,0,0,0,4.649-1.665v1.949a2.624,2.624,0,0,0,.735,1.83,2.518,2.518,0,0,0,1.845.795h3.555a2.524,2.524,0,0,0,1.845-.81,2.641,2.641,0,0,0,.72-1.815v-.33c.33.03.675.06,1,.06a7.289,7.289,0,0,0,3.194-.72.047.047,0,0,1,.015.03,2.41,2.41,0,0,0,2.115,1.154h3.165a2.372,2.372,0,0,0,1.3-.39,2.427,2.427,0,0,0,.87-.96l.24-.48h3.284l.21.435a2.3,2.3,0,0,0,.93,1.035,2.417,2.417,0,0,0,1.26.375h3.585a2.31,2.31,0,0,0,.84-.15,2.431,2.431,0,0,0,.81.15h3.4a2.43,2.43,0,0,0,2.43-2.43v-.765l.975,1.889a2.4,2.4,0,0,0,.765.87,2.342,2.342,0,0,0,1.365.435h3.885a2.429,2.429,0,0,0,1.95-.96,1.564,1.564,0,0,0,.315.555,1.388,1.388,0,0,0,2.1,0,1.581,1.581,0,0,0,.4-1.05,1.672,1.672,0,0,0-.42-1.125m-75.873-1a4.934,4.934,0,0,1-4,1.875A5.042,5.042,0,0,1,491.748,94c-.21-.15-.405-.3-.585-.42l-.54-.405-.57,1.095a.916.916,0,0,1-.24.24.487.487,0,0,1-.3.105h-1.875a.562.562,0,0,1-.435-.195.637.637,0,0,1-.18-.45v-15.6a.662.662,0,0,1,.18-.45.56.56,0,0,1,.435-.195h3.554a.584.584,0,0,1,.435.195.679.679,0,0,1,.2.45V82.48l.315-.165c.1-.045.21-.105.345-.165v.015a5.632,5.632,0,0,1,2.43-.555,5,5,0,0,1,2.235.465,4.674,4.674,0,0,1,1.679,1.41,8.618,8.618,0,0,1-.06,9.493m7.154.96a.654.654,0,0,1-.15.45.418.418,0,0,1-.345.195h-3.314a.469.469,0,0,1-.375-.195.693.693,0,0,1-.135-.45V78.371a.678.678,0,0,1,.15-.45.431.431,0,0,1,.375-.195h3.314a.4.4,0,0,1,.345.195.81.81,0,0,1,.15.45V93.938Zm2.549-16.317a1.9,1.9,0,0,1,1.425-.555,1.854,1.854,0,0,1,1.44.555,2.09,2.09,0,0,1,.51,1.5,2.186,2.186,0,0,1-.51,1.5,2.17,2.17,0,0,1-2.864,0,2.1,2.1,0,0,1-.525-1.5,2.123,2.123,0,0,1,.525-1.5m3.584,16.317a.652.652,0,0,1-.15.45.418.418,0,0,1-.345.195h-3.3a.47.47,0,0,1-.375-.195.807.807,0,0,1-.15-.45V82.54a.681.681,0,0,1,.15-.45.432.432,0,0,1,.375-.195h2.895a.619.619,0,0,1,.255.06,2.624,2.624,0,0,1,.3.135,1.724,1.724,0,0,1,.255.21.352.352,0,0,1,.105.255Zm13.123-1.545a5.033,5.033,0,0,1-3.929,1.725,7.509,7.509,0,0,1-1.545-.165,5.208,5.208,0,0,1-1.41-.555v2.955a.708.708,0,0,1-.18.48.562.562,0,0,1-.435.195h-3.554a.56.56,0,0,1-.435-.195.706.706,0,0,1-.18-.48V82.645a.644.644,0,0,1,.18-.465.562.562,0,0,1,.435-.195H516.3a.658.658,0,0,1,.3.105,1.144,1.144,0,0,1,.24.21l.465.825a5.735,5.735,0,0,1,1.785-1.08,6.186,6.186,0,0,1,1.95-.33,5.167,5.167,0,0,1,4.065,1.8V83.5a7.146,7.146,0,0,1,.075,8.893M535.6,94.118a7.184,7.184,0,0,1-1.545-.165,5.213,5.213,0,0,1-1.41-.555v2.955a.708.708,0,0,1-.18.48.561.561,0,0,1-.435.195h-3.555a.59.59,0,0,1-.435-.195.642.642,0,0,1-.18-.48V82.645a.646.646,0,0,1,.18-.465.563.563,0,0,1,.435-.195h2.175a.656.656,0,0,1,.3.105,1.15,1.15,0,0,1,.24.21l.465.825a5.732,5.732,0,0,1,1.785-1.08,6.181,6.181,0,0,1,1.949-.33,5.167,5.167,0,0,1,4.065,1.8V83.5a7.119,7.119,0,0,1,.06,8.893,4.982,4.982,0,0,1-3.914,1.725m20.636.255a.452.452,0,0,1-.42.21h-3.585a.452.452,0,0,1-.239-.075.44.44,0,0,1-.18-.195l-.78-1.56h-5.744l-.78,1.575a.558.558,0,0,1-.18.195.452.452,0,0,1-.24.075h-3.164a.5.5,0,0,1-.45-.225.456.456,0,0,1,.015-.495L546.774,82.3a.5.5,0,0,1,.18-.179.394.394,0,0,1,.225-.075h2.715a.444.444,0,0,1,.225.075.727.727,0,0,1,.18.195l5.924,11.578a.5.5,0,0,1,.015.48m14.457-.015a.461.461,0,0,1-.42.24h-3.884a.452.452,0,0,1-.24-.075.566.566,0,0,1-.18-.195L564.021,90.5l.015.03-.135-.165a1.306,1.306,0,0,0-.15-.135,2.447,2.447,0,0,0-.945-.105h-1.485V94.1a.5.5,0,0,1-.135.345.482.482,0,0,1-.33.15h-3.4a.377.377,0,0,1-.315-.15A.474.474,0,0,1,557,94.1V82.5a.463.463,0,0,1,.135-.33.422.422,0,0,1,.315-.15h7.679a5.024,5.024,0,0,1,3.165.915,3.536,3.536,0,0,1,.24,5.249,3.731,3.731,0,0,1-.6.39,4.755,4.755,0,0,1-.75.33,3.541,3.541,0,0,1,.825.6,3.716,3.716,0,0,1,.57.645l2.1,3.7a.517.517,0,0,1,.015.51m3.48,1.365a.781.781,0,0,1-.584.255.717.717,0,0,1-.57-.27.871.871,0,0,1-.24-.63.9.9,0,0,1,.24-.63.734.734,0,0,1,.585-.255.751.751,0,0,1,.57.255.9.9,0,0,1,.24.63,1.006,1.006,0,0,1-.24.645" transform="translate(-349.059 101.285)" fill="#fff"/>
  </g>
</svg>
